
<svg width="55px" height="44px" viewBox="0 0 55 44" version="1.1" xmlns="http://www.w3.org/2000/svg" xmlns:xlink="http://www.w3.org/1999/xlink">
    <defs>
        <linearGradient x1="50%" y1="-17.724%" x2="50%" y2="85.598%" id="linearGradient-1">
            <stop stop-color="#000000" stop-opacity="0.4" offset="0%"></stop>
            <stop stop-color="#000000" offset="100%"></stop>
        </linearGradient>
        <linearGradient x1="64.7678626%" y1="20.3320695%" x2="64.7678626%" y2="100%" id="linearGradient-2">
            <stop stop-color="#FFFCFC" stop-opacity="0.4" offset="0%"></stop>
            <stop stop-color="#000000" offset="100%"></stop>
        </linearGradient>
    </defs>
    <g id="Page-1" stroke="none" stroke-width="1" fill="none" fill-rule="evenodd">
        <g id="Artboard" transform="translate(-101.000000, -90.000000)" fill-rule="nonzero">
            <g id="stroke" transform="translate(125.246154, 108.500000) scale(-1, 1) rotate(60.000000) translate(-125.246154, -108.500000) translate(96.246154, 85.500000)">
                <path d="M10.9081426,17.9679488 L0.136195105,39.3996637 C0.0450769671,39.5811868 0.00120526886,39.7737405 -2.84217094e-14,39.9636563 L-2.84217094e-14,39.9806815 C0.00337474178,40.4473181 0.263471217,40.8952509 0.711830314,41.1182582 C0.89069183,41.2072214 1.08811445,41.2535013 1.28794762,41.2535013 L16.2896568,41.2535013 C16.7806824,41.2650115 17.2321751,40.9875713 17.4414094,40.5451536 C20.6763443,33.8921044 18.7165812,23.7764482 13.0351966,17.7379876 C12.7346032,17.4188235 12.3573549,17.2538462 11.9938465,17.2538462 C11.5626021,17.2538462 11.1504012,17.4859654 10.9081426,17.9679488" id="Path" fill="url(#linearGradient-1)"></path>
                <path d="M23.1573108,1.44496859 C17.046718,11.0072396 17.4498694,21.5976962 21.474783,29.5486279 L28.810966,44.0407808 C29.0324669,44.4778443 29.4845149,44.7538462 29.9793473,44.7538462 L45.193975,44.7538462 C45.9151982,44.7538462 46.5,44.1764878 46.5,43.4639054 C46.5,43.2637255 46.4528149,43.0662018 46.362112,42.8870301 C46.362112,42.8870301 25.8938021,2.4485241 25.3786777,1.43675858 C24.918562,0.530999012 23.7489581,0.518683974 23.1573108,1.44496859" id="Path" fill="#000000"></path>
                <path d="M45.1118362,9.51237195 L34.4881665,40.5883585 C34.3983026,40.8515671 34.3550348,41.1307699 34.3538462,41.4061478 L34.3538462,41.4308344 C34.3571744,42.1074574 34.6136906,42.75696 35.055878,43.0803206 C35.2322774,43.2093172 35.4269825,43.276423 35.6240649,43.276423 L50.4192729,43.276423 C50.9035394,43.2931128 51.3488173,42.8908245 51.5551714,42.2493189 C54.7455768,32.6023975 52.8127902,17.9346961 47.2096109,9.17892816 C46.9131552,8.71614029 46.5410998,8.47692308 46.1825951,8.47692308 C45.757287,8.47692308 45.35076,8.81349602 45.1118362,9.51237195" id="Path" fill="url(#linearGradient-2)" transform="translate(43.723077, 25.876923) scale(1, -1) rotate(-16.000000) translate(-43.723077, -25.876923) "></path>
            </g>
        </g>
    </g>
</svg>